<?xml version="1.0" encoding="UTF-8"?>
<svg width="100pt" height="100pt" version="1.1" viewBox="0 0 100 100" xmlns="http://www.w3.org/2000/svg">
 <g>
  <path d="m50 2.5c-26.199 0-47.5 21.301-47.5 47.5s21.301 47.5 47.5 47.5 47.5-21.301 47.5-47.5-21.301-47.5-47.5-47.5zm29.801 17.699c3.8984 3.8984 7 8.5 9.1016 13.602l-8.3008 3.3984c-1.6992-4.1016-4.1016-7.6992-7.1992-10.801zm-29.801-12.301c5.6992 0 11.199 1.1992 16.102 3.1992l-3.3984 8.3008c-3.8984-1.6016-8.1992-2.5-12.699-2.5zm-16.102 3.2031 3.3984 8.3008c-4 1.6992-7.6992 4.1016-10.801 7.1992l-6.3984-6.3008c4.0039-4 8.7031-7.1016 13.801-9.1992zm-22.797 22.797 8.3008 3.3984c-1.6016 3.8984-2.5 8.1992-2.5 12.699h-9c-0.003906-5.6953 1.0977-11.195 3.1992-16.098zm9.0977 45.902c-3.8984-3.8984-7-8.5-9.1016-13.699l8.3008-3.3984c1.6992 4.1016 4.1016 7.6992 7.1992 10.801zm29.801 12.301c-5.6992 0-11.102-1.1016-16.102-3.1992l3.3984-8.3008c3.8984 1.6016 8.1992 2.5 12.699 2.5zm-27.801-42.102c0-15.301 12.5-27.801 27.801-27.801s27.801 12.5 27.801 27.801-12.402 27.801-27.801 27.801-27.801-12.5-27.801-27.801zm43.902 38.898-3.3984-8.3008c4-1.6992 7.6992-4.1016 10.699-7.1992l6.3984 6.3008c-3.9023 4-8.5 7.1016-13.699 9.1992zm14.598-26.199c1.6016-3.8984 2.5-8.1992 2.5-12.699h9c0 5.6992-1.1992 11.199-3.1992 16.102z"/>
  <path d="m66.898 43.102-9.6992-1.8984c-0.5-0.10156-0.80078-0.39844-1.1016-0.80078l-4.8008-8.6016c-0.60156-1.1016-2.1016-1.1016-2.6992 0l-4.8008 8.6016c-0.19922 0.39844-0.60156 0.69922-1.1016 0.80078l-9.6992 1.8984c-1.1992 0.19922-1.6992 1.6992-0.80078 2.6016l6.6992 7.1992c0.30078 0.30078 0.5 0.80078 0.39844 1.3008l-1.0938 9.7969c-0.10156 1.1992 1.1016 2.1016 2.1992 1.6016l8.8984-4.1992c0.39844-0.19922 0.89844-0.19922 1.3008 0l8.8984 4.1992c1.1016 0.5 2.3984-0.39844 2.1992-1.6016l-1.1992-9.8008c-0.10156-0.5 0.10156-0.89844 0.39844-1.3008l6.6992-7.1992c1.0078-0.89844 0.50781-2.3008-0.69531-2.5977z"/>
 </g>
</svg>
